<?xml version="1.0" encoding="utf-8"?>
<!-- Generator: Adobe Illustrator 26.0.1, SVG Export Plug-In . SVG Version: 6.00 Build 0)  -->
<svg version="1.1" id="Layer_1" xmlns="http://www.w3.org/2000/svg" xmlns:xlink="http://www.w3.org/1999/xlink" x="0px" y="0px"
	 viewBox="0 0 1366 768" style="enable-background:new 0 0 1366 768;" xml:space="preserve">
<style type="text/css">
	.st0{fill:#FFFFFF;}
</style>
<g>
	<rect x="4.56" y="432.56" class="st0" width="329.88" height="329.88"/>
	<path d="M333.88,433.12v328.76H5.12V433.12H333.88 M335,432H4v331h331V432L335,432z"/>
</g>
<g>
	<circle class="st0" cx="1196.5" cy="169.5" r="165"/>
	<path d="M1196.5,5c43.94,0,85.25,17.11,116.32,48.18c31.07,31.07,48.18,72.38,48.18,116.32s-17.11,85.25-48.18,116.32
		c-31.07,31.07-72.38,48.18-116.32,48.18s-85.25-17.11-116.32-48.18c-31.07-31.07-48.18-72.38-48.18-116.32
		s17.11-85.25,48.18-116.32C1111.25,22.11,1152.56,5,1196.5,5 M1196.5,4C1105.1,4,1031,78.1,1031,169.5S1105.1,335,1196.5,335
		S1362,260.9,1362,169.5S1287.9,4,1196.5,4L1196.5,4z"/>
</g>
</svg>
